<svg class="svg-icon" style="width: 1em;height: 1em;vertical-align: middle;fill: currentColor;overflow: hidden;"
     viewBox="0 0 1024 1024" version="1.1" xmlns="http://www.w3.org/2000/svg">
    <path d="M512 185.6l256 228.266667V853.333333H256V413.866667L512 185.6M512 85.333333c-10.666667 0-19.2 4.266667-27.733333 10.666667L185.6 362.666667c-10.666667 6.4-14.933333 19.2-14.933333 32V896c0 23.466667 19.2 42.666667 42.666666 42.666667h597.333334c23.466667 0 42.666667-19.2 42.666666-42.666667V394.666667c0-12.8-4.266667-23.466667-14.933333-32l-298.666667-264.533334c-8.533333-8.533333-17.066667-12.8-27.733333-12.8z"/>
    <path d="M618.666667 768H405.333333c-23.466667 0-42.666667-19.2-42.666666-42.666667s19.2-42.666667 42.666666-42.666666h213.333334c23.466667 0 42.666667 19.2 42.666666 42.666666s-19.2 42.666667-42.666666 42.666667z"/>
</svg>