<svg  class="svg-icon" style="width: 1.001953125em; height: 1em;vertical-align: middle;fill: currentColor;overflow: hidden;" viewBox="0 0 1026 1024" version="1.1" xmlns="http://www.w3.org/2000/svg"><path d="M1024 734.697472V253.863936A96.19456 96.19456 0 0 0 927.98976 157.696H96.01024A96.19456 96.19456 0 0 0 0 253.863936v544.944128A96.19456 96.19456 0 0 0 96.01024 894.976h831.97952A96.19456 96.19456 0 0 0 1024 798.808064v-64.1024zM910.848 221.7984L552.46848 529.496064a61.786112 61.786112 0 0 1-80.93696 0.032768l-358.4-307.72224h797.71648zM64 785.526784V264.005632l280.33024 240.715776z m45.2608 45.330432l283.79136-284.305408 36.864 31.647744a125.304832 125.304832 0 0 0 164.16768-0.03072l36.84352-31.633408L914.7392 830.8736H109.2608z m850.7392-45.330432l-280.33024-280.82176 280.33024-240.699392v521.529344z" fill="#fff" /></svg>