<svg fill='rgba(255,255,255,.48)' viewBox="0 0 1024 1024" version="1.1" xmlns="http://www.w3.org/2000/svg"><path d="M1004 1018.4H20c-8.8 0-16-7.2-16-16v-648c0-8.8 7.2-16 16-16h984c8.8 0 16 7.2 16 16v648.8c0 8.8-7.2 15.2-16 15.2z m-968-32h952v-616H36v616z"  /><path d="M512 902.4c-124.8 0-225.6-101.6-225.6-225.6C286.4 552 387.2 451.2 512 451.2s225.6 101.6 225.6 225.6-100.8 225.6-225.6 225.6z m0-435.2c-115.2 0-209.6 94.4-209.6 209.6s94.4 209.6 209.6 209.6c115.2 0 209.6-94.4 209.6-209.6S627.2 467.2 512 467.2z"  /><path d="M452.8 804c-1.6 0-2.4 0-4-0.8-2.4-1.6-4-4-4-7.2V557.6c0-3.2 1.6-5.6 4-7.2 2.4-1.6 5.6-1.6 8 0l198.4 119.2c2.4 1.6 4 4 4 7.2s-1.6 5.6-4 7.2l-198.4 119.2c-1.6 0-2.4 0.8-4 0.8z m8-232v209.6l174.4-104.8-174.4-104.8zM1004 204.8H20c-8.8 0-16-7.2-16-16v-168c0-8.8 7.2-16 16-16h984c8.8 0 16 7.2 16 16v168c0 8.8-7.2 16-16 16z m-968-32h952v-136H36v136z"  /><path d="M1004 370.4H20c-8.8 0-16-7.2-16-16V188.8c0-8.8 7.2-16 16-16h984c8.8 0 16 7.2 16 16v164.8c0 9.6-7.2 16.8-16 16.8z m-968-32h952V204.8H36v133.6z"  /><path d="M232.8 364.8c-2.4 0-4-0.8-5.6-2.4-3.2-3.2-3.2-8 0-11.2l162.4-162.4L227.2 27.2c-3.2-3.2-3.2-8 0-11.2 3.2-3.2 8-3.2 11.2 0l168 168c1.6 1.6 2.4 3.2 2.4 5.6 0 2.4-0.8 4-2.4 5.6l-168 168c-1.6 0.8-3.2 1.6-5.6 1.6zM37.6 364.8c-2.4 0-4-0.8-5.6-2.4-3.2-3.2-3.2-8 0-11.2l162.4-162.4L32 27.2c-3.2-3.2-3.2-8.8 0-12 3.2-3.2 8-3.2 11.2 0l168 168c1.6 1.6 2.4 3.2 2.4 5.6 0 2.4-0.8 4-2.4 5.6l-168 168c-0.8 1.6-3.2 2.4-5.6 2.4zM428 364.8c-2.4 0-4-0.8-5.6-2.4-3.2-3.2-3.2-8 0-11.2l162.4-162.4L422.4 27.2c-3.2-3.2-3.2-8 0-11.2 3.2-3.2 8-3.2 11.2 0l168 168c1.6 1.6 2.4 3.2 2.4 5.6 0 2.4-0.8 4-2.4 5.6l-168 168c-1.6 0.8-3.2 1.6-5.6 1.6zM623.2 364.8c-2.4 0-4-0.8-5.6-2.4-3.2-3.2-3.2-8 0-11.2l162.4-162.4L617.6 27.2c-3.2-3.2-3.2-8 0-11.2 3.2-3.2 8-3.2 11.2 0l168 168c3.2 3.2 3.2 8 0 11.2l-168 168c-1.6 0.8-3.2 1.6-5.6 1.6zM818.4 364.8c-2.4 0-4-0.8-5.6-2.4-3.2-3.2-3.2-8 0-11.2l162.4-162.4-162.4-161.6c-3.2-3.2-3.2-8 0-11.2 3.2-3.2 8-3.2 11.2 0l168 168c3.2 3.2 3.2 8 0 11.2l-168 168c-1.6 0.8-4 1.6-5.6 1.6z"  /></svg>